    <svg width="448" height="568" viewBox="0 0 448 568" fill="none" xmlns="http://www.w3.org/2000/svg">
  <g clip-path="url(#clip0_206_929)">
  <path d="M366.211 505.588C345.565 522.049 320.594 531.117 315.851 546.741C310.969 562.225 326.035 583.987 334.823 607.144C343.472 630.162 345.844 654.435 358.817 668.943C371.93 683.451 395.645 688.333 419.5 688.194C443.215 688.054 466.79 683.172 486.181 670.756C505.571 658.201 520.637 638.253 525.659 616.491C530.681 594.729 525.659 571.153 517.15 549.81C508.64 528.606 496.922 509.494 480.043 491.778C463.163 474.061 441.401 457.879 422.29 461.646C403.178 465.412 386.717 489.127 366.211 505.588Z" fill="#e74c3c"/>
  <g clip-path="url(#clip1_206_929)">
  <path d="M261.24 -93.1657C279.369 -68.0592 270.791 -32.2708 261.22 -0.0456562C251.742 32.0179 241.477 60.6363 217.881 71.165C193.985 81.7369 156.85 74.0575 121.239 74.3127C85.6293 74.5679 51.5214 82.3162 20.3081 72.4461C-10.8131 62.4144 -39.0395 34.7641 -58.3942 3.60708C-77.5413 -27.4317 -87.9086 -61.8156 -88.4344 -96.5845C-89.0522 -131.192 -79.8285 -166.184 -53.4457 -181.119C-27.2705 -196.172 16.1792 -190.888 53.5922 -181.766C90.8897 -172.924 121.759 -160.038 159.912 -146.427C197.973 -132.654 243.11 -118.272 261.24 -93.1657Z" fill="#e74c3c"/>
  </g>
  <path d="M228.723 45.6388C228.723 44.3347 227.665 43.2775 226.361 43.2775C225.057 43.2775 224 44.3347 224 45.6388C224 46.9429 225.057 48 226.361 48C227.665 48 228.723 46.9429 228.723 45.6388Z" fill="#2c3e50"/>
  <path d="M228.723 32.9164C228.723 31.6123 227.665 30.5551 226.361 30.5551C225.057 30.5551 224 31.6123 224 32.9164C224 34.2204 225.057 35.2776 226.361 35.2776C227.665 35.2776 228.723 34.2204 228.723 32.9164Z" fill="#2c3e50"/>
  <path d="M228.723 20.1937C228.723 18.8896 227.665 17.8324 226.361 17.8324C225.057 17.8324 224 18.8896 224 20.1937C224 21.4978 225.057 22.5549 226.361 22.5549C227.665 22.5549 228.723 21.4978 228.723 20.1937Z" fill="#2c3e50"/>
  <path d="M241.445 45.6388C241.445 44.3347 240.388 43.2775 239.084 43.2775C237.78 43.2775 236.722 44.3347 236.722 45.6388C236.722 46.9429 237.78 48 239.084 48C240.388 48 241.445 46.9429 241.445 45.6388Z" fill="#2c3e50"/>
  <path d="M241.445 32.9164C241.445 31.6123 240.388 30.5551 239.084 30.5551C237.78 30.5551 236.722 31.6123 236.722 32.9164C236.722 34.2204 237.78 35.2776 239.084 35.2776C240.388 35.2776 241.445 34.2204 241.445 32.9164Z" fill="#2c3e50"/>
  <path d="M241.445 20.1937C241.445 18.8896 240.388 17.8324 239.084 17.8324C237.78 17.8324 236.722 18.8896 236.722 20.1937C236.722 21.4978 237.78 22.5549 239.084 22.5549C240.388 22.5549 241.445 21.4978 241.445 20.1937Z" fill="#2c3e50"/>
  <path d="M254.168 45.6388C254.168 44.3347 253.11 43.2775 251.806 43.2775C250.502 43.2775 249.445 44.3347 249.445 45.6388C249.445 46.9429 250.502 48 251.806 48C253.11 48 254.168 46.9429 254.168 45.6388Z" fill="#2c3e50"/>
  <path d="M254.168 32.9164C254.168 31.6123 253.11 30.5551 251.806 30.5551C250.502 30.5551 249.445 31.6123 249.445 32.9164C249.445 34.2204 250.502 35.2776 251.806 35.2776C253.11 35.2776 254.168 34.2204 254.168 32.9164Z" fill="#2c3e50"/>
  <path d="M254.168 20.1937C254.168 18.8896 253.11 17.8324 251.806 17.8324C250.502 17.8324 249.445 18.8896 249.445 20.1937C249.445 21.4978 250.502 22.5549 251.806 22.5549C253.11 22.5549 254.168 21.4978 254.168 20.1937Z" fill="#2c3e50"/>
  <path d="M266.89 45.6388C266.89 44.3347 265.833 43.2775 264.529 43.2775C263.225 43.2775 262.167 44.3347 262.167 45.6388C262.167 46.9429 263.225 48 264.529 48C265.833 48 266.89 46.9429 266.89 45.6388Z" fill="#2c3e50"/>
  <path d="M266.89 32.9164C266.89 31.6123 265.833 30.5551 264.529 30.5551C263.225 30.5551 262.167 31.6123 262.167 32.9164C262.167 34.2204 263.225 35.2776 264.529 35.2776C265.833 35.2776 266.89 34.2204 266.89 32.9164Z" fill="#2c3e50"/>
  <path d="M266.89 20.1937C266.89 18.8896 265.833 17.8324 264.529 17.8324C263.225 17.8324 262.167 18.8896 262.167 20.1937C262.167 21.4978 263.225 22.5549 264.529 22.5549C265.833 22.5549 266.89 21.4978 266.89 20.1937Z" fill="#2c3e50"/>
  <path d="M279.613 45.6388C279.613 44.3347 278.555 43.2775 277.251 43.2775C275.947 43.2775 274.89 44.3347 274.89 45.6388C274.89 46.9429 275.947 48 277.251 48C278.555 48 279.613 46.9429 279.613 45.6388Z" fill="#2c3e50"/>
  <path d="M279.613 32.9164C279.613 31.6123 278.555 30.5551 277.251 30.5551C275.947 30.5551 274.89 31.6123 274.89 32.9164C274.89 34.2204 275.947 35.2776 277.251 35.2776C278.555 35.2776 279.613 34.2204 279.613 32.9164Z" fill="#2c3e50"/>
  <path d="M279.613 20.1937C279.613 18.8896 278.555 17.8324 277.251 17.8324C275.947 17.8324 274.89 18.8896 274.89 20.1937C274.89 21.4978 275.947 22.5549 277.251 22.5549C278.555 22.5549 279.613 21.4978 279.613 20.1937Z" fill="#2c3e50"/>
  <path d="M292.335 45.6388C292.335 44.3347 291.278 43.2775 289.974 43.2775C288.67 43.2775 287.613 44.3347 287.613 45.6388C287.613 46.9429 288.67 48 289.974 48C291.278 48 292.335 46.9429 292.335 45.6388Z" fill="#2c3e50"/>
  <path d="M292.335 32.9164C292.335 31.6123 291.278 30.5551 289.974 30.5551C288.67 30.5551 287.613 31.6123 287.613 32.9164C287.613 34.2204 288.67 35.2776 289.974 35.2776C291.278 35.2776 292.335 34.2204 292.335 32.9164Z" fill="#2c3e50"/>
  <path d="M292.335 20.1937C292.335 18.8896 291.278 17.8324 289.974 17.8324C288.67 17.8324 287.613 18.8896 287.613 20.1937C287.613 21.4978 288.67 22.5549 289.974 22.5549C291.278 22.5549 292.335 21.4978 292.335 20.1937Z" fill="#2c3e50"/>
  <path d="M370.361 455.723C371.665 455.723 372.723 454.665 372.723 453.361C372.723 452.057 371.665 451 370.361 451C369.057 451 368 452.057 368 453.361C368 454.665 369.057 455.723 370.361 455.723Z" fill="#2c3e50"/>
  <path d="M383.084 455.723C384.388 455.723 385.445 454.665 385.445 453.361C385.445 452.057 384.388 451 383.084 451C381.78 451 380.722 452.057 380.722 453.361C380.722 454.665 381.78 455.723 383.084 455.723Z" fill="#2c3e50"/>
  <path d="M395.806 455.723C397.11 455.723 398.168 454.665 398.168 453.361C398.168 452.057 397.11 451 395.806 451C394.502 451 393.445 452.057 393.445 453.361C393.445 454.665 394.502 455.723 395.806 455.723Z" fill="#2c3e50"/>
  <path d="M370.361 468.445C371.665 468.445 372.723 467.388 372.723 466.084C372.723 464.78 371.665 463.722 370.361 463.722C369.057 463.722 368 464.78 368 466.084C368 467.388 369.057 468.445 370.361 468.445Z" fill="#2c3e50"/>
  <path d="M383.084 468.445C384.388 468.445 385.445 467.388 385.445 466.084C385.445 464.78 384.388 463.722 383.084 463.722C381.78 463.722 380.722 464.78 380.722 466.084C380.722 467.388 381.78 468.445 383.084 468.445Z" fill="#2c3e50"/>
  <path d="M395.806 468.445C397.11 468.445 398.168 467.388 398.168 466.084C398.168 464.78 397.11 463.722 395.806 463.722C394.502 463.722 393.445 464.78 393.445 466.084C393.445 467.388 394.502 468.445 395.806 468.445Z" fill="#2c3e50"/>
  <path d="M370.361 481.168C371.665 481.168 372.723 480.11 372.723 478.806C372.723 477.502 371.665 476.445 370.361 476.445C369.057 476.445 368 477.502 368 478.806C368 480.11 369.057 481.168 370.361 481.168Z" fill="#2c3e50"/>
  <path d="M383.084 481.168C384.388 481.168 385.445 480.11 385.445 478.806C385.445 477.502 384.388 476.445 383.084 476.445C381.78 476.445 380.722 477.502 380.722 478.806C380.722 480.11 381.78 481.168 383.084 481.168Z" fill="#2c3e50"/>
  <path d="M395.806 481.168C397.11 481.168 398.168 480.11 398.168 478.806C398.168 477.502 397.11 476.445 395.806 476.445C394.502 476.445 393.445 477.502 393.445 478.806C393.445 480.11 394.502 481.168 395.806 481.168Z" fill="#2c3e50"/>
  <path d="M370.361 493.89C371.665 493.89 372.723 492.833 372.723 491.529C372.723 490.225 371.665 489.167 370.361 489.167C369.057 489.167 368 490.225 368 491.529C368 492.833 369.057 493.89 370.361 493.89Z" fill="#2c3e50"/>
  <path d="M383.084 493.89C384.388 493.89 385.445 492.833 385.445 491.529C385.445 490.225 384.388 489.167 383.084 489.167C381.78 489.167 380.722 490.225 380.722 491.529C380.722 492.833 381.78 493.89 383.084 493.89Z" fill="#2c3e50"/>
  <path d="M395.806 493.89C397.11 493.89 398.168 492.833 398.168 491.529C398.168 490.225 397.11 489.167 395.806 489.167C394.502 489.167 393.445 490.225 393.445 491.529C393.445 492.833 394.502 493.89 395.806 493.89Z" fill="#2c3e50"/>
  <path d="M370.361 506.613C371.665 506.613 372.723 505.555 372.723 504.251C372.723 502.947 371.665 501.89 370.361 501.89C369.057 501.89 368 502.947 368 504.251C368 505.555 369.057 506.613 370.361 506.613Z" fill="#2c3e50"/>
  <path d="M383.084 506.613C384.388 506.613 385.445 505.555 385.445 504.251C385.445 502.947 384.388 501.89 383.084 501.89C381.78 501.89 380.722 502.947 380.722 504.251C380.722 505.555 381.78 506.613 383.084 506.613Z" fill="#2c3e50"/>
  <path d="M395.806 506.613C397.11 506.613 398.168 505.555 398.168 504.251C398.168 502.947 397.11 501.89 395.806 501.89C394.502 501.89 393.445 502.947 393.445 504.251C393.445 505.555 394.502 506.613 395.806 506.613Z" fill="#2c3e50"/>
  <path d="M370.361 519.335C371.665 519.335 372.723 518.278 372.723 516.974C372.723 515.67 371.665 514.613 370.361 514.613C369.057 514.613 368 515.67 368 516.974C368 518.278 369.057 519.335 370.361 519.335Z" fill="#2c3e50"/>
  <path d="M383.084 519.335C384.388 519.335 385.445 518.278 385.445 516.974C385.445 515.67 384.388 514.613 383.084 514.613C381.78 514.613 380.722 515.67 380.722 516.974C380.722 518.278 381.78 519.335 383.084 519.335Z" fill="#2c3e50"/>
  <path d="M395.806 519.335C397.11 519.335 398.168 518.278 398.168 516.974C398.168 515.67 397.11 514.613 395.806 514.613C394.502 514.613 393.445 515.67 393.445 516.974C393.445 518.278 394.502 519.335 395.806 519.335Z" fill="#2c3e50"/>
  </g>
  <defs>
  <clipPath id="clip0_206_929">
  <rect width="448" height="568" fill="white"/>
  </clipPath>
  <clipPath id="clip1_206_929">
  <rect width="477.688" height="372" fill="white" transform="translate(-21.7839 -323) rotate(29.6832)"/>
  </clipPath>
  </defs>
  </svg>
