<svg width="448" height="568" viewBox="0 0 448 568" fill="none" xmlns="http://www.w3.org/2000/svg">
  <g clip-path="url(#clip0_248_513)">
  <path d="M276.616 189.788L175.358 214.696L204.319 114.942L276.616 189.788Z" fill="#e74c3c" fill-opacity="0.04"/>
  <path d="M402.443 136.213L345.837 150.137L362.027 94.3716L402.443 136.213Z" fill="#e74c3c" fill-opacity="0.04"/>
  <path d="M325.653 -3.9788L248.575 89.6895L205.631 -23.5978L325.653 -3.9788Z" fill="#e74c3c" fill-opacity="0.04"/>
  <path d="M84.1529 114.474L-118.538 62.3463L28.154 -86.3417L84.1529 114.474Z" fill="#e74c3c" fill-opacity="0.04"/>
  <path d="M217.557 370.257L89.4718 443.788L89.5491 296.593L217.557 370.257Z" fill="#e74c3c" fill-opacity="0.04"/>
  <path d="M395.67 252.947L422.692 391.031L289.06 345.286L395.67 252.947Z" fill="#e74c3c" fill-opacity="0.04"/>
  <path d="M397 475.027L523.442 537.842L405.577 615.448L397 475.027Z" fill="#e74c3c" fill-opacity="0.04"/>
  <path d="M211.005 492.494L311.233 476.806L274.766 571.063L211.005 492.494Z" fill="#e74c3c" fill-opacity="0.04"/>
  <path d="M130.632 577.489L30.8157 595.591L64.9763 500.482L130.632 577.489Z" fill="#e74c3c" fill-opacity="0.04"/>
  <path d="M262.372 498.723C263.682 498.723 264.744 497.665 264.744 496.361C264.744 495.057 263.682 494 262.372 494C261.062 494 260 495.057 260 496.361C260 497.665 261.062 498.723 262.372 498.723Z" fill="#2c3e50"/>
  <path d="M338.115 108.966C339.425 108.966 340.487 107.909 340.487 106.605C340.487 105.301 339.425 104.244 338.115 104.244C336.806 104.244 335.744 105.301 335.744 106.605C335.744 107.909 336.806 108.966 338.115 108.966Z" fill="#2c3e50"/>
  <path d="M229.011 45.212C230.32 45.212 231.382 44.1548 231.382 42.8508C231.382 41.5467 230.32 40.4895 229.011 40.4895C227.701 40.4895 226.639 41.5467 226.639 42.8508C226.639 44.1548 227.701 45.212 229.011 45.212Z" fill="#2c3e50"/>
  <path d="M25.032 31.0445C26.3419 31.0445 27.4039 29.9874 27.4039 28.6833C27.4039 27.3792 26.3419 26.322 25.032 26.322C23.7221 26.322 22.6602 27.3792 22.6602 28.6833C22.6602 29.9874 23.7221 31.0445 25.032 31.0445Z" fill="#2c3e50"/>
  <path d="M398.597 281.337C399.907 281.337 400.969 280.28 400.969 278.976C400.969 277.672 399.907 276.615 398.597 276.615C397.288 276.615 396.226 277.672 396.226 278.976C396.226 280.28 397.288 281.337 398.597 281.337Z" fill="#2c3e50"/>
  <path d="M94.2847 71.0762L104.522 64.4869L105.135 76.6075L94.2847 71.0762Z" stroke="#e74c3c" stroke-width="3"/>
  <path d="M375.615 467.787L364.27 463.348L373.803 455.786L375.615 467.787Z" stroke="#e74c3c" stroke-width="3"/>
  <path d="M380.112 69.944L378.643 57.8964L389.858 62.6534L380.112 69.944Z" stroke="#e74c3c" stroke-width="3"/>
  </g>
  <defs>
  <clipPath id="clip0_248_513">
  <rect width="448" height="568" fill="white"/>
  </clipPath>
  </defs>
  </svg>
  
